# Blender 4.1.1
# www.blender.org
mtllib GameObjects\Materials\kartina1.mtl
o Cube
v -0.001000 0.746000 1.000000
v -0.001000 0.746000 -1.000000
v 0.001000 0.746000 1.000000
v 0.001000 0.746000 -1.000000
v -0.001000 -0.746000 1.000000
v -0.001000 -0.746000 -1.000000
v 0.001000 -0.746000 1.000000
v 0.001000 -0.746000 -1.000000
vn -0.0000 -0.0000 1.0000
vn 1.0000 -0.0000 -0.0000
vn -0.0000 -1.0000 -0.0000
vn -0.0000 -0.0000 -1.0000
vn -0.0000 1.0000 -0.0000
vn -1.0000 -0.0000 -0.0000
vt 1.996713 0.002847
vt 1.000062 1.000343
vt 1.000042 0.000107
vt -0.001550 2.001110
vt 0.000931 1.000525
vt 0.997582 -1.995416
vt -0.001550 -0.996284
vt -0.001550 -1.995416
vt 0.000025 -0.000182
vt -1.000681 1.001978
vt -1.000681 0.002847
vt 0.997582 -0.996284
vt 1.996713 1.001978
vt 0.997582 2.001110
s 0
usemtl Material
f 5/1/1 3/2/1 1/3/1
f 3/2/2 8/4/2 4/5/2
f 7/6/3 6/7/3 8/8/3
f 2/9/4 8/10/4 6/11/4
f 1/3/5 4/5/5 2/9/5
f 5/12/6 2/9/6 6/7/6
f 5/1/1 7/13/1 3/2/1
f 3/2/2 7/14/2 8/4/2
f 7/6/3 5/12/3 6/7/3
f 2/9/4 4/5/4 8/10/4
f 1/3/5 3/2/5 4/5/5
f 5/12/6 1/3/6 2/9/6
