# Blender 4.1.1
# www.blender.org
mtllib GameObjects\Materials\stena.mtl
o Cube
v 1.000000 4.000000 10.000000
v 1.000000 4.000000 -10.000000
v 1.000000 -4.000000 10.000000
v 1.000000 -4.000000 -10.000000
v -1.000000 4.000000 10.000000
v -1.000000 4.000000 -10.000000
v -1.000000 -4.000000 10.000000
v -1.000000 -4.000000 -10.000000
vn -0.0000 -0.0000 1.0000
vn -0.0000 -1.0000 -0.0000
vn -1.0000 -0.0000 -0.0000
vn -0.0000 -0.0000 -1.0000
vn 1.0000 -0.0000 -0.0000
vn -0.0000 1.0000 -0.0000
vt 0.774994 0.382532
vt 0.725006 0.680154
vt 0.725006 0.384120
vt 0.228165 0.753953
vt 0.226959 0.680704
vt 0.724534 0.000000
vt 0.227769 0.299209
vt 0.226975 0.000000
vt 0.228000 0.384000
vt 0.176987 0.676980
vt 0.176987 0.380945
vt 0.725800 0.300003
vt 0.774200 0.678567
vt 0.724213 0.758715
s 0
usemtl Material
f 5/1/1 3/2/1 1/3/1
f 3/2/2 8/4/2 4/5/2
f 7/6/3 6/7/3 8/8/3
f 2/9/4 8/10/4 6/11/4
f 1/3/5 4/5/5 2/9/5
f 5/12/6 2/9/6 6/7/6
f 5/1/1 7/13/1 3/2/1
f 3/2/2 7/14/2 8/4/2
f 7/6/3 5/12/3 6/7/3
f 2/9/4 4/5/4 8/10/4
f 1/3/5 3/2/5 4/5/5
f 5/12/6 1/3/6 2/9/6
