# Blender 4.1.1
# www.blender.org
mtllib GameObjects\Materials\verx_yaschik.mtl
o Cube
v 0.800000 -0.800000 -0.800000
v 0.800000 -0.800000 0.800000
v 0.800000 0.800000 -0.800000
v 0.800000 0.800000 0.800000
v -0.800000 -0.800000 -0.800000
v -0.800000 -0.800000 0.800000
v -0.800000 0.800000 -0.800000
v -0.800000 0.800000 0.800000
vn -0.0000 -0.0000 -1.0000
vn -0.0000 1.0000 -0.0000
vn -1.0000 -0.0000 -0.0000
vn -0.0000 -0.0000 1.0000
vn 1.0000 -0.0000 -0.0000
vn -0.0000 -1.0000 -0.0000
vt 0.999514 0.127368
vt 0.859504 0.863684
vt 0.862354 0.125263
vt 0.375000 1.000000
vt 0.124977 0.861404
vt 0.862354 0.001053
vt 0.124857 0.127132
vt 0.128891 0.000000
vt 0.127428 0.128655
vt 0.001214 0.864056
vt 0.001214 0.126002
vt 0.860408 0.124737
vt 1.000849 0.861118
vt 0.858478 0.999337
s 0
usemtl Material
f 5/1/1 3/2/1 1/3/1
f 3/2/2 8/4/2 4/5/2
f 7/6/3 6/7/3 8/8/3
f 2/9/4 8/10/4 6/11/4
f 1/3/5 4/5/5 2/9/5
f 5/12/6 2/9/6 6/7/6
f 5/1/1 7/13/1 3/2/1
f 3/2/2 7/14/2 8/4/2
f 7/6/3 5/12/3 6/7/3
f 2/9/4 4/5/4 8/10/4
f 1/3/5 3/2/5 4/5/5
f 5/12/6 1/3/6 2/9/6
