# Blender 4.1.1
# www.blender.org
mtllib GameObjects\Materials\yaschik_perp.mtl
o Cube
v 0.800000 -0.800000 0.800000
v -0.800000 -0.800000 0.800000
v 0.800000 0.800000 0.800000
v -0.800000 0.800000 0.800000
v 0.800000 -0.800000 -0.800000
v -0.800000 -0.800000 -0.800000
v 0.800000 0.800000 -0.800000
v -0.800000 0.800000 -0.800000
vn 1.0000 -0.0000 -0.0000
vn -0.0000 1.0000 -0.0000
vn -0.0000 -0.0000 -1.0000
vn -1.0000 -0.0000 -0.0000
vn -0.0000 -0.0000 1.0000
vn -0.0000 -1.0000 -0.0000
vt 0.999993 0.166223
vt 0.833898 0.829893
vt 0.834453 0.171343
vt 0.832407 0.829024
vt 0.168463 0.999291
vt 0.165917 0.831108
vt 0.625000 0.000000
vt 0.165954 0.003082
vt 0.375000 0.000000
vt 0.168463 0.169915
vt 0.002167 0.828311
vt 0.000370 0.166476
vt 0.830999 0.171111
vt 0.839411 0.000375
vt 0.168157 0.165669
vt 0.999449 0.825515
vt 0.830056 0.996055
s 0
usemtl Material
f 5/1/1 3/2/1 1/3/1
f 3/4/2 8/5/2 4/6/2
f 7/7/3 6/8/3 8/9/3
f 2/10/4 8/11/4 6/12/4
f 1/13/5 4/6/5 2/10/5
f 5/14/6 2/15/6 6/8/6
f 5/1/1 7/16/1 3/2/1
f 3/4/2 7/17/2 8/5/2
f 7/7/3 5/14/3 6/8/3
f 2/10/4 4/6/4 8/11/4
f 1/13/5 3/4/5 4/6/5
f 5/14/6 1/3/6 2/15/6
