# Blender 4.1.1
# www.blender.org
mtllib GameObjects\Materials\oboiWall_perp.mtl
o Cube
v 20.000000 3.999999 -1.000001
v -20.000000 4.000001 -0.999999
v 20.000000 -4.000001 -1.000001
v -20.000000 -3.999999 -0.999999
v 20.000000 3.999999 0.999999
v -20.000000 4.000001 1.000001
v 20.000000 -4.000001 0.999999
v -20.000000 -3.999999 1.000001
vn 1.0000 -0.0000 -0.0000
vn -0.0000 -1.0000 -0.0000
vn -0.0000 -0.0000 1.0000
vn -1.0000 -0.0000 -0.0000
vn -0.0000 -0.0000 -1.0000
vn -0.0000 1.0000 -0.0000
vt 0.854984 0.470749
vt 0.821214 0.737229
vt 0.821300 0.470716
vt 0.154724 0.818571
vt 0.154698 0.737333
vt 0.821250 0.114909
vt 0.154870 0.382238
vt 0.154731 0.114939
vt 0.154568 0.470927
vt 0.121072 0.737230
vt 0.121063 0.470707
vt 0.821276 0.381424
vt 0.854920 0.737250
vt 0.821285 0.818571
s 0
usemtl Material
f 5/1/1 3/2/1 1/3/1
f 3/2/2 8/4/2 4/5/2
f 7/6/3 6/7/3 8/8/3
f 2/9/4 8/10/4 6/11/4
f 1/3/5 4/5/5 2/9/5
f 5/12/6 2/9/6 6/7/6
f 5/1/1 7/13/1 3/2/1
f 3/2/2 7/14/2 8/4/2
f 7/6/3 5/12/3 6/7/3
f 2/9/4 4/5/4 8/10/4
f 1/3/5 3/2/5 4/5/5
f 5/12/6 1/3/6 2/9/6
