# Blender 4.1.1
# www.blender.org
mtllib oboi.mtl
o Cube
v 20.000000 -4.000001 -1.000000
v -20.000000 -3.999999 -1.000000
v 20.000000 -4.000001 1.000000
v -20.000000 -3.999999 1.000000
v 20.000000 3.999999 -1.000000
v -20.000000 4.000001 -1.000000
v 20.000000 3.999999 1.000000
v -20.000000 4.000001 1.000000
vn 1.0000 -0.0000 -0.0000
vn -0.0000 -0.0000 1.0000
vn -0.0000 1.0000 -0.0000
vn -1.0000 -0.0000 -0.0000
vn -0.0000 -1.0000 -0.0000
vn -0.0000 -0.0000 -1.0000
vt 2.250797 -1.229166
vt 1.092384 -0.070753
vt 1.092384 -1.229166
vt -0.066030 1.087661
vt -0.066030 -0.070753
vt 1.092384 -3.545993
vt -0.066030 -2.387580
vt -0.066030 -3.545993
vt -0.066030 -1.229166
vt -1.224443 -0.070753
vt -1.224443 -1.229166
vt 1.092384 -2.387580
vt 2.250797 -0.070753
vt 1.092384 1.087661
s 0
usemtl Material
f 5/1/1 3/2/1 1/3/1
f 3/2/2 8/4/2 4/5/2
f 7/6/3 6/7/3 8/8/3
f 2/9/4 8/10/4 6/11/4
f 1/3/5 4/5/5 2/9/5
f 5/12/6 2/9/6 6/7/6
f 5/1/1 7/13/1 3/2/1
f 3/2/2 7/14/2 8/4/2
f 7/6/3 5/12/3 6/7/3
f 2/9/4 4/5/4 8/10/4
f 1/3/5 3/2/5 4/5/5
f 5/12/6 1/3/6 2/9/6
